# xmcd
#
# Track frame offsets: 
#        150
#        29834
#        61265
#        92578
#        113652
#        143469
#        161852
#        182114
#        209758
#        213313
#
# Disc length: 3129 seconds
#
# Revision: 0
# Processed by: cddbd v1.5.2PL0 Copyright (c) Steve Scherf et al.
# Submitted via: ExactAudioCopyFreeDBPlugin 1.0
#
DISCID=910c370a
DTITLE=Jacques Schwarz-Bart - Hazzman
DYEAR=2018
DGENRE=Blues
TTITLE0=Shabbat menukka hi
TTITLE1=Mi Shebeirach
TTITLE2=Oseh shalom
TTITLE3=Ahot Ketana
TTITLE4=Avinu malkenu
TTITLE5=Adon olam
TTITLE6=Ma nishtana
TTITLE7=Maoz tsour
TTITLE8=Havdalah
TTITLE9=Daienu
EXTD=
EXTT0=
EXTT1=
EXTT2=
EXTT3=
EXTT4=
EXTT5=
EXTT6=
EXTT7=
EXTT8=
EXTT9=
PLAYORDER=
